# xmcd
#
# Track frame offsets: 
#        150
#        14032
#        28847
#        42495
#        56285
#        68285
#        80795
#        93410
#        102787
#        113220
#        125740
#        140265
#        154085
#
# Disc length: 2205 seconds
#
# Revision: 1
# Processed by: cddbd v1.5.2PL0 Copyright (c) Steve Scherf et al.
# Submitted via: ExactAudioCopyFreeDBPlugin 1.0
#
DISCID=ac089b0d
DTITLE=Various Artist - Παλιά κιτάπια
DYEAR=1997
DGENRE=Λαϊκό
TTITLE0=Περπινιάδης Βαγγέλης - Μη Με Τυραννάς [Β. Περπινιάδη]
TTITLE1=Περπινιάδης Βαγγέλης - Μη Μ' Αφήνεις Μόνο Μου [Β. Περπινιάδη]
TTITLE2=Περπινιάδης Βαγγέλης - Το Διαζύγιο [Θ. Δερβενιώτη-Κ. Βίρβου]
TTITLE3=Μαριανού Μίνα - Φέρτε Μιά Κούπα Με Κρασί [Απ. Καλδάρα-Χ. Βασιλ
TTITLE3=ειάδη]
TTITLE4=Χρυσάφη Άννα - Πώς Θα Περάσει Η Βραδιά [Γ. Παπαϊωάννου-Α. Αγγε
TTITLE4=λόπουλου]
TTITLE5=Ζαγοραίος Σπύρος - Εδώ Παπάς, Εκεί Παπάς [Θ. Δερβενιώτη-Κ. Βίρ
TTITLE5=βου]
TTITLE6=Μπίνης Τάκης - Κοριτσάρα Μου [Τ. Μπίνη]
TTITLE7=Άνευ ερμηνευτού - Χασαποσέρβικο [ορχηστρικό, Θ. Δερβενιώτη]
TTITLE8=Ζαγοραίος Σπύρος - Τα Σήμαντρα [Μ. Βαμβακάρη]
TTITLE9=Πάνου Πόλυ - Κατήφορος [Γ. Χουρβαδά-Π. Πάνου]
TTITLE10=Πάνου Πόλυ - Κρυφό Μαράζι [Στ. Πελαγίδη]
TTITLE11=Λύδια Γιώτα - Σαν Τσιγάρο Αναμμένο [Στ. Βαρτάνη]
TTITLE12=Αδαμοπούλου Ρένα - Καράβι Περήφανο [Α. Χατζηαποστόλου]
EXTD=
EXTT0=
EXTT1=
EXTT2=
EXTT3=
EXTT4=
EXTT5=
EXTT6=
EXTT7=
EXTT8=
EXTT9=
EXTT10=
EXTT11=
EXTT12=
PLAYORDER=
